<svg xmlns="http://www.w3.org/2000/svg" width="24.528" height="24.528" viewBox="0 0 24.528 24.528"><defs><style>.a{fill:#d13030;}</style></defs><path class="a" d="M21.947,6.454a1.022,1.022,0,0,0-.475,1.365,10.116,10.116,0,0,1,1.012,4.445,10.22,10.22,0,1,1-10.22-10.22,10.1,10.1,0,0,1,6.345,2.2,1.022,1.022,0,1,0,1.272-1.6,12.266,12.266,0,1,0,4.648,9.615,12.139,12.139,0,0,0-1.216-5.335A1.021,1.021,0,0,0,21.947,6.454Zm0,0"/><path class="a" d="M177.022,64A1.022,1.022,0,0,0,176,65.022v7.154a1.022,1.022,0,0,0,1.022,1.022h5.11a1.022,1.022,0,0,0,0-2.044h-4.088V65.022A1.022,1.022,0,0,0,177.022,64Zm0,0" transform="translate(-164.758 -59.912)"/></svg>