<svg xmlns="http://www.w3.org/2000/svg" width="21.867" height="24" viewBox="0 0 21.867 24"><g transform="translate(-9 -5)"><g transform="translate(9 5)"><path d="M28.467,7.667H25V6.6A1.6,1.6,0,0,0,23.4,5H16.467a1.6,1.6,0,0,0-1.6,1.6V7.667H11.4a2.394,2.394,0,0,0-.267,4.773V27.4a1.6,1.6,0,0,0,1.6,1.6h14.4a1.6,1.6,0,0,0,1.6-1.6V12.44a2.394,2.394,0,0,0-.267-4.773ZM15.933,6.6a.535.535,0,0,1,.533-.533H23.4a.535.535,0,0,1,.533.533V7.667h-8ZM27.667,27.4a.535.535,0,0,1-.533.533h-14.4A.535.535,0,0,1,12.2,27.4V12.467H27.667Zm.8-16H11.4a1.333,1.333,0,0,1,0-2.667H28.467a1.333,1.333,0,0,1,0,2.667Z" transform="translate(-9 -5)"/><path d="M48.533,51.267a.535.535,0,0,0,.533-.533v-11.2a.533.533,0,0,0-1.067,0v11.2A.535.535,0,0,0,48.533,51.267Z" transform="translate(-37.6 -29.933)"/><path d="M31.533,53.6a.535.535,0,0,0,.533-.533V44.533a.533.533,0,0,0-1.067,0v8.533A.535.535,0,0,0,31.533,53.6Z" transform="translate(-25.133 -33.6)"/><path d="M65.533,53.6a.535.535,0,0,0,.533-.533V44.533a.533.533,0,0,0-1.067,0v8.533A.535.535,0,0,0,65.533,53.6Z" transform="translate(-50.067 -33.6)"/></g></g></svg>