<svg xmlns="http://www.w3.org/2000/svg" width="24.944" height="24.944" viewBox="0 0 24.944 24.944"><defs><style>.a{fill:#d62626;}</style></defs><g transform="translate(-5 -5)"><g transform="translate(5 5)"><path class="a" d="M17.472,5A12.472,12.472,0,1,0,29.944,17.472a.832.832,0,1,0-1.663,0,10.8,10.8,0,1,1-.312-2.581.834.834,0,1,0,1.62-.4A12.479,12.479,0,0,0,17.472,5Zm-.009,4.14a.832.832,0,0,0-.823.849V21.075a.832.832,0,1,0,1.663,0V9.989a.832.832,0,0,0-.84-.849Zm.009,13.875A1.386,1.386,0,1,0,18.858,24.4,1.386,1.386,0,0,0,17.472,23.015Z" transform="translate(-5 -5)"/></g></g></svg>