<svg xmlns="http://www.w3.org/2000/svg" width="23.962" height="23.962" viewBox="0 0 23.962 23.962"><defs><style>.a{fill:#3da325;}</style></defs><g transform="translate(-12.2 -12.2)"><path class="a" d="M41.344,37.126,35.777,42.4l-2.312-2.442a.99.99,0,0,0-1.433,1.367l3,3.125a.944.944,0,0,0,.684.293.912.912,0,0,0,.684-.26l6.284-5.958a.977.977,0,0,0,.033-1.367.944.944,0,0,0-1.367-.033Z" transform="translate(-13.191 -16.624)"/><path class="a" d="M24.181,12.2A11.981,11.981,0,1,0,36.162,24.181,11.981,11.981,0,0,0,24.181,12.2Zm0,22.009A10.028,10.028,0,1,1,34.209,24.181,10.028,10.028,0,0,1,24.181,34.209Z" transform="translate(0 0)"/></g></svg>