<svg xmlns="http://www.w3.org/2000/svg" width="16.457" height="24" viewBox="0 0 16.457 24"><defs><style>.a{fill:#ff6738;}</style></defs><g transform="translate(-13 -2)"><path class="a" d="M29.114,26a.343.343,0,0,1-.2-.061l-7.69-5.35-7.69,5.349a.343.343,0,0,1-.539-.28V3.714A1.716,1.716,0,0,1,14.714,2H27.743a1.716,1.716,0,0,1,1.714,1.714V25.657A.343.343,0,0,1,29.114,26Zm-7.886-6.171a.343.343,0,0,1,.2.061L28.771,25V3.714a1.029,1.029,0,0,0-1.029-1.029H14.714a1.029,1.029,0,0,0-1.029,1.029V25l7.347-5.111A.343.343,0,0,1,21.229,19.829Z" transform="translate(0)"/><path class="a" d="M29.713,21.741a.343.343,0,0,1-.2-.066l-2.953-2.147-2.953,2.147a.343.343,0,0,1-.528-.383l1.127-3.473-2.953-2.147a.343.343,0,0,1,.2-.62H25.1l1.13-3.473a.343.343,0,0,1,.651,0l1.13,3.473h3.649a.343.343,0,0,1,.2.62l-2.953,2.147,1.127,3.473a.343.343,0,0,1-.326.449Zm-3.154-2.979a.343.343,0,0,1,.2.066l2.3,1.673-.878-2.706a.343.343,0,0,1,.124-.383l2.3-1.673H27.765a.343.343,0,0,1-.326-.237l-.881-2.707-.88,2.709a.343.343,0,0,1-.326.237H22.508l2.3,1.672a.343.343,0,0,1,.124.383L24.056,20.5l2.3-1.673A.343.343,0,0,1,26.558,18.762Z" transform="translate(-5.33 -6.14)"/></g></svg>